<?xml version="1.0" encoding="utf-8"?>
<!-- Generator: Adobe Illustrator 24.0.1, SVG Export Plug-In . SVG Version: 6.00 Build 0)  -->
<svg version="1.1" id="Layer_1" xmlns="http://www.w3.org/2000/svg" xmlns:xlink="http://www.w3.org/1999/xlink" x="0px" y="0px"
	 viewBox="0 0 2500 324.4" style="enable-background:new 0 0 2500 324.4;" xml:space="preserve">
<style type="text/css">
	.st0{fill-rule:evenodd;clip-rule:evenodd;}
</style>
<path class="st0" d="M77.1,192.8c-1.7,48.5,29.5,32.1,29.5,43.7c0,1.1,1.1,4.5-6.8,4.5c-10.2,0-16.2-1.1-29.2-1.1
	c-13.9,0-23.9,1.1-28.1,1.1s-5.4-2.3-5.4-4c0-10.2,23.3-3.2,24.4-33l4-114.1c1.7-46.8-28.7-33.5-28.7-46c0-1.7,1.4-4,3.4-4
	c3.7,0,8,1.1,17,1.1c6.5,0,17-1.1,26.4-1.1c3.1,0,5.9-0.3,9.9,8.2L156,184.6c1.1,2.6,2,4.5,3.7,4.5c1.7,0,4.3-5.1,4.6-6l65.8-137.3
	c0.8-2,1.7-5.7,7.1-5.7c6.8,0,12.2,1.1,16.4,1.1c5.1,0,10.5-1.1,18.5-1.1c7.7,0,8.2,1.1,8.2,3.4c0,10.2-27.8-0.8-26.7,31.8
	l4.9,125.7c1.4,37.2,27.5,24.7,27.5,35.2c0,4.8-3.7,4.8-13.6,4.8c-8.2,0-16.2-1.1-24.4-1.1c-18.5,0-25.2,1.1-31.8,1.1
	c-6,0-13.1,0.8-13.1-4.3c0-9.6,22.1-0.3,20.4-31.8l-4.3-86c-0.3-8.5-0.6-12.8-2.3-12.8c-1.1,0-4.5,5.7-8.8,15.1l-53.6,112.1
	c-1.7,3.7-2.9,7.9-7.4,7.9c-4.2,0-5.7-4.8-7.1-7.9L85,111.1c-0.8-1.7-2-4.9-3.1-4.9c-2,0-2,5.1-2,7.1L77.1,192.8L77.1,192.8z"/>
<path class="st0" d="M351.1,118.2c9.6,0,35.8,4.8,35.8,21.3c0,5.1-16.2,17.3-21,17.3c-2.5,0-3.1-2.3-3.7-4.2
	c-3.4-13.6-8.3-23.3-23.6-23.3c-21.8,0-26.7,20.5-26.7,38c0,27.3,15.1,57.9,41.7,57.9c16.7,0,30.6-15.1,35.2-15.1
	c1.1,0,2.8,0.3,2.8,3.4c0,7.1-23.8,29.5-53.1,29.5c-32.4,0-55.1-24.4-55.1-56.7C283.5,148.2,312.8,118.2,351.1,118.2z"/>
<path class="st0" d="M498.1,115.3c-1.7,1.4-6.2,5.7-6.2,8.2c0,2.5,2.5,6,6.8,11.6l54.2,73c22.2,30.1,34.6,22.1,34.6,29.2
	c0,2-0.3,3.7-3.7,3.7c-6.3,0-13.6-1.1-21.3-1.1c-5.4,0-11.1,1.1-19,1.1c-5.4,0-8.2-0.6-13.9-8.2l-56.5-77.5c-3.7-4.8-5.4-8-7.1-8
	c-2.3,0-7.1,4.8-13.4,11.9c-4.2,4.8-3.7,7.4-3.7,13.9v37.2c0,26.1,27.8,17,27.8,27.2c0,2.6-1.2,3.4-8,3.4c-7.7,0-15.3-1.1-31.5-1.1
	c-13.6,0-28.4,1.1-37.2,1.1c-5.4,0-8.8-0.3-8.8-2.3c0-14.2,22.7,4.3,22.7-38.6V76.7c0-34.3-29.8-19.8-29.8-32.4
	c0-3.1,2.3-4.2,5.7-4.2c5.4,0,14.8,1.1,34.1,1.1c15.9,0,33.8-1.1,39.5-1.1c2.6,0,6,0,6,3.4c0,11.3-20.5-4-20.5,27.2v65
	c0,2.8-0.3,6.8,1.4,6.5c1.7,0.3,3.4-1.1,7.1-4.8l37.5-36.6c7.9-8,35.5-30.9,35.5-43.7c0-8.8-17.3-5.1-17.3-11.6
	c0-5.1,2.8-5.4,6.5-5.4c2.8,0,22.4,1.1,30.9,1.1c7.1,0,14.5-1.1,26.7-1.1c2.3,0,7.4-0.3,7.4,4.8c0,7.7-9.1-0.8-36.6,24.1
	L498.1,115.3L498.1,115.3z"/>
<path class="st0" d="M595,149.1c0-13.6-18.2-5.7-18.2-13.6c0-4.5,4.3-4.8,14.2-7.4c23.8-5.4,27.2-12.2,30.6-12.2
	c3.4,0,3.4,2,3.4,5.7v95.7c0,18.2,20.7,10.5,20.7,20.2c0,4.5-8.2,3.7-11.6,3.7c-9.1,0-17.9-1.1-27-1.1c-6.8,0-13.9,1.1-21,1.1
	c-4.8,0-7.9,0.8-7.9-4c0-7.1,16.8-2.3,16.8-15.4V149.1z M610.3,94.3c-4.5,0-18.7-18.2-18.7-22.4c0-4.3,14.2-22.7,18.7-22.7
	c4.8,0,18.7,18.4,18.7,22.7C629,76.2,615.1,94.3,610.3,94.3z"/>
<path class="st0" d="M660.6,149.1c0-13.6-18.2-5.7-18.2-13.6c0-4.5,4.3-4.8,14.2-7.4c23.9-5.4,27.2-12.2,30.6-12.2
	c3.4,0,3.4,2,3.4,5.7v16.2h0.6c7.7-12.5,21.8-19.6,38.6-19.6c30.6,0,43.2,25.3,43.2,52.8v46c0,17.9,17.6,13.7,17.6,19.9
	c0,3.4-1.7,4.3-6.5,4.3c-9.1,0-18.2-1.1-24.1-1.1c-7.1,0-17.3,1.1-20.8,1.1c-5.4,0-9.4,1.4-9.4-3.7c0-4.9,13.1-7.4,13.1-17.9v-48.3
	c0-18.4-6.5-34.6-27.8-34.6c-18.7,0-24.4,10.8-24.4,27.2v52.5c0,16.2,23,13.6,23,20.4c0,2.6-2,4.3-8.8,4.3c-3.1,0-13.3-1.1-27.8-1.1
	c-9.9,0-19.9,1.1-28.4,1.1c-2.8,0-3.1-1.7-3.1-3.1c0-8.2,15.1-0.6,15.1-24.1L660.6,149.1L660.6,149.1L660.6,149.1z M875.4,148.8
	c0,2.3-0.8,2.8-3.7,2.8c-5.7,0-8.5-24.7-35.2-24.7c-9.4,0-17.9,4.3-17.9,14.5c0,13.3,11.3,14.7,34.3,23.8
	c18.5,7.4,30.1,16.2,30.1,37.8c0,30.3-26.7,40-48.5,40c-9.6,0-28.1-2-35.5-6.2c-2-1.1-2.9-1.7-2.9-5.7l0.9-29.3
	c0.3-4,2.3-4.8,5.1-4.8c4.8,0,7.9,38.3,38.6,38.3c11.9,0,20.4-7.9,20.4-19.9c0-11.4-15.9-17.9-41.2-28.9
	c-15.6-6.8-22.1-14.2-22.1-31.5c0-27,22.4-36.9,46.3-36.9c2.2,0,28.9,2.3,29.2,7.1L875.4,148.8L875.4,148.8z M927.4,171.5
	c-5.1,0-6.3-2-6.3,7.1c0,24.4,17.3,46.6,42,46.6c16.7,0,30.6-15.1,35.2-15.1c1.1,0,2.8,0.3,2.8,3.4c0,7.1-23.8,29.5-53.1,29.5
	c-28.1,0-55.9-17.9-55.9-56.7c0-32.7,18.5-68.1,55.1-68.1c38.1,0,53.4,32.4,53.4,47.1c0,6.2-1.7,6.2-3.4,6.2H927.4L927.4,171.5z
	 M963.5,161.6c4.8,0,6.5,0.3,6.5-7.7c0-10.8-7.9-27.5-25.8-27.5c-17,0-23.3,16.7-23.3,29.8c0,4.6,0.5,5.4,1.4,5.4H963.5L963.5,161.6
	z M1017.7,142c-5.7-11.6-15-10.8-15-16.5c0-4,4.5-4.2,9.9-4.2c4.5,0,9.1,1.1,22.1,1.1c14.2,0,19.3-1.1,24.7-1.1c4.8,0,8-0.3,8,3.7
	c0,7.7-15.6,5.7-15.6,14.2c0,2.8,2.5,8.5,5.1,13.9l23.3,46.9c2,4,2.8,7.1,5.1,7.1c1.4,0,2.8-3.9,4-7.1l13.9-35.8
	c3.4-8.8,4.5-15.3,4.5-18.1c0-17.3-19-12.8-19-20.2c0-4.8,4-4.5,10.2-4.5c3.1,0,7.7,1.1,15.9,1.1c8,0,12.2-1.1,15.6-1.1
	c3.7,0,7.1,0,7.1,3.1c0,5.4-10.8,6.5-14.5,15.6l-60.5,152.1c-1.1,3.1-1.7,5.4-4.5,5.4h-13.3c-2,0-2.5-0.8-2.5-2.3
	c0-2,1.1-4.3,2.5-6.5l17.6-28.1c4.8-7.7,6.5-12.5,6.5-14.8c0-3.1-2-7.1-7.1-17L1017.7,142L1017.7,142z M1203.7,109.4
	c0-5.4-6-10.5-6-27.5c0-27,21.9-44.3,47.7-44.3c18.7,0,36.3,10.5,40.6,10.5c4,0,5.1-4.2,9.4-4.2c2.8,0,3.1,1.4,3.1,5.7
	c0,14.5,2.3,29.2,4,43.7c0.3,2.9-0.9,5.1-4.3,5.1c-2.6,0-4-2.3-5.4-6.8c-6.8-22.4-22.1-43.1-47.4-43.1c-13.3,0-19.9,8.2-19.9,21
	c0,40.6,94.2,120.3,101.3,120.3c1.1,0,11.1-11.9,11.1-28.9c0-35.5-32.3-20.7-32.3-32.1c0-2.3,1.4-4,5.4-4c4.8,0,11.3,1.1,29.2,1.1
	c13.9,0,19-1.1,23.5-1.1c2.8,0,4.6,0.8,4.6,3.7c0,6.5-9.7,2.3-11.1,12.2c-5.4,41.2-17.6,53.6-17.6,55.7c0,11.3,30.6,26.4,38.1,26.4
	c10.8,0,10.5-2,14.4-2c2.3,0,4,0.6,4,3.4c0,4.5-14.5,19-35.2,19c-17.4,0-36.9-14.2-46.3-22.1c-17.3,15.6-47.1,22.1-69.8,22.1
	c-64.1,0-84.8-44-84.8-68.9C1160,124.2,1203.7,112.5,1203.7,109.4L1203.7,109.4z M1303.9,215.8c0-6.5-65.8-45.7-89.1-88.3
	c-2.5-4.5-5.4-8.5-7.7-8.5c-5.4,0-21.3,8.5-21.3,29.5c0,31.2,39.7,77.8,83.4,77.8C1280.6,226.3,1303.9,220.9,1303.9,215.8
	L1303.9,215.8z M1589.2,101.2c0.3,2.8,1.4,9.4-3.4,9.4c-4.5,0-6.5-6-8.5-9.6c-14.2-27.3-39.2-51.9-72.1-51.9
	c-41.7,0-64.7,39.7-64.7,77.8c0,40,22.7,96.2,76.9,96.2c44,0,63.3-37.1,70.7-37.1c1.4,0,4,1.4,4,3.1c0,11.3-30.1,54.2-90.5,54.2
	c-83.2,0-95.9-72.7-95.9-95.1c0-47.7,29.2-110.4,100.7-110.4c34.3,0,56.2,17.3,64.7,17.3c5.4,0,5.7-9.4,9.6-9.4
	c1.4,0,3.4,0.3,3.4,1.7L1589.2,101.2L1589.2,101.2z M1660.6,243c-34.3,0-61-23.8-61-58.7c0-37.2,26.4-66.1,64.4-66.1
	c35.5,0,62.7,23.5,62.7,59.3C1726.7,216.1,1699.7,243,1660.6,243L1660.6,243z M1629.6,168.1c-0.8,18.7,8.2,65,39.8,65
	c22.1,0,28.7-16.5,28.7-35.8c0-22.7-8.2-70.1-38.9-70.1C1634.4,127.3,1630.5,147.7,1629.6,168.1z M1851.1,216.7
	c0,18.7,18.4,11.9,18.4,19.9c0,2-0.6,4.5-4.2,4.5c-5.4,0-11.6-1.1-24.4-1.1c-15.9,0-21.9,1.1-25.8,1.1c-3.7,0-5.1-1.1-5.1-3.7
	c0-6.6,11.1-3.4,11.1-18.5v-50.2c0-27.2-9.6-32.6-22.4-32.6c-17,0-21,13.1-21,16.8v64.4c0,18.2,19,10.5,19,20.2
	c0,4.5-6.5,3.7-9.9,3.7c-9.1,0-17.9-1.1-27-1.1c-6.8,0-13.9,1.1-19.6,1.1c-4.8,0-6.5,0.8-6.5-4c0-7.1,13.9-2.3,13.9-15.4v-72.7
	c0-13.6-18.2-5.7-18.2-13.6c0-4.5,4.3-4.8,14.2-7.4c23.8-5.4,27.2-12.2,30.6-12.2c3.5,0,3.5,2,3.5,5.7v14.2
	c9.4-9.6,20.7-17.6,36.3-17.6c14.5,0,25.3,8.2,33.2,19.6c6.8-9.1,20.1-19.6,38.3-19.6c32.6,0,39.2,20.7,39.2,51.1v48
	c0,16.5,17.9,11.1,17.9,19c0,5.4-4.5,4.8-8.5,4.8c-5.7,0-11.3-1.1-17-1.1c-10.2,0-22.7,1.1-27.3,1.1c-4.6,0-6.5-0.6-6.5-4.3
	c0-4.8,11.3-5.7,11.3-13.6v-51.1c0-16.8-0.3-37.2-22.7-37.2c-23.3,0-20.7,25.8-20.7,29.2L1851.1,216.7L1851.1,216.7L1851.1,216.7z
	 M1987.9,272.6c0,20.4,23.3,12.5,23.3,21.3c0,1.7-0.9,3.7-6,3.7c-10.5,0-14.4-1.1-25.5-1.1c-17.9,0-22.4,1.1-27.3,1.1
	c-3.7,0-6.5,0.3-6.5-4.3c0-6.2,11.9-2.5,11.9-13.3V155.6c0-21-17.6-8.5-17.6-18.5c0-7.7,13.6-3.1,40.3-19.3c1.4-0.8,2.8-2,4.8-2
	c3.1,0,2.5,6,2.5,7.7v14.2c9.7-11.1,23-19.6,38.1-19.6c31.2,0,45.4,25.8,45.4,52.2c0,34.9-16.5,72.7-61.9,72.7
	c-6.5,0-15.4-2.3-21.6-5.4L1987.9,272.6L1987.9,272.6L1987.9,272.6z M1987.9,215.5c0,0.8,10.2,17.3,29.2,17.3
	c23,0,29.2-21.8,29.2-40.9c0-19.6-10.8-54-37.5-54c-7.7,0-15.9,4.6-21,10.2L1987.9,215.5L1987.9,215.5z M2177.3,208.7
	c0,14.2,0.3,17.6,7.7,17.6c3.4,0,7.1-1.4,9.1-1.4c2,0,3.1,1.1,3.1,2.6c0,5.7-17.3,15.6-27.5,15.6c-13.3,0-17.3-11.3-18.5-17.3
	c-11.9,9.7-28.7,17.3-44.3,17.3c-15.6,0-26.7-11.1-26.7-26.7c0-34.9,37.7-39.7,67-47.1c0-24.4-2-41.7-24.4-41.7
	c-10.8,0-13,2.9-13,15.9c0,13.3-18.2,13.3-20.2,13.3c-2.3,0-7.4-0.6-7.4-6c0-24.7,32.1-32.6,52-32.6c29.2,0,43.1,13.1,43.1,41.7
	L2177.3,208.7L2177.3,208.7L2177.3,208.7z M2147.3,189.1c0-7.6,0.6-10.2-2-10.2c-11.1,0-33.5,9.6-33.5,28.7c0,4.5,0.3,18.7,15,18.7
	c6.2,0,20.4-3.1,20.4-9.6V189.1L2147.3,189.1z"/>
<path class="st0" d="M2211.4,149.1c0-13.6-18.2-5.7-18.2-13.6c0-4.5,4.3-4.8,14.2-7.4c23.8-5.4,27.2-12.2,30.6-12.2
	c3.4,0,3.4,2,3.4,5.7v16.2h0.6c7.7-12.5,21.9-19.6,38.6-19.6c30.6,0,43.1,25.3,43.1,52.8v46c0,17.9,17.6,13.7,17.6,19.9
	c0,3.4-1.7,4.3-6.5,4.3c-9.1,0-18.2-1.1-24.1-1.1c-7.1,0-17.3,1.1-20.7,1.1c-5.4,0-9.4,1.4-9.4-3.7c0-4.9,13-7.4,13-17.9v-48.3
	c0-18.4-6.6-34.6-27.8-34.6c-18.7,0-24.4,10.8-24.4,27.2v52.5c0,16.2,23,13.6,23,20.4c0,2.6-2,4.3-8.8,4.3c-3.1,0-13.3-1.1-27.8-1.1
	c-9.9,0-19.9,1.1-28.4,1.1c-2.8,0-3.1-1.7-3.1-3.1c0-8.2,15-0.6,15-24.1L2211.4,149.1L2211.4,149.1L2211.4,149.1z M2343.5,142
	c-5.7-11.6-15-10.8-15-16.5c0-4,4.5-4.2,9.9-4.2c4.5,0,9.1,1.1,22.1,1.1c14.2,0,19.3-1.1,24.7-1.1c4.8,0,8-0.3,8,3.7
	c0,7.7-15.6,5.7-15.6,14.2c0,2.8,2.6,8.5,5.1,13.9l23.3,46.9c2,4,2.9,7.1,5.1,7.1c1.4,0,2.8-3.9,4-7.1l13.9-35.8
	c3.4-8.8,4.5-15.3,4.5-18.1c0-17.3-19-12.8-19-20.2c0-4.8,4-4.5,10.2-4.5c3.1,0,7.7,1.1,15.9,1.1c7.9,0,12.2-1.1,15.6-1.1
	c3.7,0,7.1,0,7.1,3.1c0,5.4-10.8,6.5-14.5,15.6l-60.4,152.1c-1.2,3.1-1.7,5.4-4.5,5.4h-13.3c-2,0-2.6-0.8-2.6-2.3
	c0-2,1.2-4.3,2.6-6.5l17.6-28.1c4.8-7.7,6.5-12.5,6.5-14.8c0-3.1-2-7.1-7.1-17L2343.5,142L2343.5,142z"/>
</svg>
